<svg width="298" height="60" viewBox="0 0 298 60" fill="none" xmlns="http://www.w3.org/2000/svg">
<rect width="298" height="60" fill="black" fill-opacity="0.95"/>
<path d="M44.4489 20.5256V18.1818H60.8125V20.5256H53.9517V40H51.3097V20.5256H44.4489ZM65.85 46.1364V23.6364H68.2789V26.2358H68.5772C68.7619 25.9517 69.0176 25.5895 69.3443 25.1491C69.6781 24.7017 70.1539 24.304 70.7718 23.956C71.3968 23.6009 72.242 23.4233 73.3074 23.4233C74.6852 23.4233 75.8997 23.7678 76.9508 24.4567C78.002 25.1456 78.8223 26.1222 79.4118 27.3864C80.0012 28.6506 80.296 30.142 80.296 31.8608C80.296 33.5938 80.0012 35.0959 79.4118 36.3672C78.8223 37.6314 78.0055 38.6115 76.9615 39.3075C75.9174 39.9964 74.7136 40.3409 73.35 40.3409C72.2988 40.3409 71.4572 40.1669 70.8251 39.8189C70.193 39.4638 69.7065 39.0625 69.3656 38.6151C69.0247 38.1605 68.7619 37.7841 68.5772 37.4858H68.3642V46.1364H65.85ZM68.3216 31.8182C68.3216 33.054 68.5027 34.1442 68.8649 35.0888C69.2271 36.0263 69.7562 36.7614 70.4522 37.294C71.1483 37.8196 72.0005 38.0824 73.0091 38.0824C74.0602 38.0824 74.9373 37.8054 75.6404 37.2514C76.3507 36.6903 76.8833 35.9375 77.2385 34.9929C77.6007 34.0412 77.7818 32.983 77.7818 31.8182C77.7818 30.6676 77.6042 29.6307 77.2491 28.7074C76.9011 27.777 76.372 27.0419 75.6618 26.5021C74.9586 25.9553 74.0744 25.6818 73.0091 25.6818C71.9863 25.6818 71.127 25.9411 70.4309 26.4595C69.7349 26.9709 69.2093 27.6882 68.8542 28.6115C68.4991 29.5277 68.3216 30.5966 68.3216 31.8182ZM93.992 40.3409C92.4153 40.3409 91.0552 39.9929 89.9118 39.2969C88.7754 38.5938 87.8983 37.6136 87.2804 36.3565C86.6696 35.0923 86.3642 33.6222 86.3642 31.946C86.3642 30.2699 86.6696 28.7926 87.2804 27.5142C87.8983 26.2287 88.7576 25.2273 89.8585 24.5099C90.9664 23.7855 92.2591 23.4233 93.7363 23.4233C94.5886 23.4233 95.4302 23.5653 96.2612 23.8494C97.0922 24.1335 97.8485 24.5952 98.5304 25.2344C99.2122 25.8665 99.7555 26.7045 100.16 27.7486C100.565 28.7926 100.768 30.0781 100.768 31.6051V32.6705H88.1539V30.4972H98.2108C98.2108 29.5739 98.0261 28.75 97.6568 28.0256C97.2946 27.3011 96.7761 26.7294 96.1014 26.3104C95.4338 25.8913 94.6454 25.6818 93.7363 25.6818C92.7349 25.6818 91.8684 25.9304 91.1369 26.4276C90.4125 26.9176 89.8549 27.5568 89.4643 28.3452C89.0737 29.1335 88.8784 29.9787 88.8784 30.8807V32.3295C88.8784 33.5653 89.0914 34.6129 89.5176 35.4723C89.9508 36.3246 90.551 36.9744 91.318 37.4219C92.0851 37.8622 92.9764 38.0824 93.992 38.0824C94.6525 38.0824 95.2491 37.9901 95.7818 37.8054C96.3216 37.6136 96.7868 37.3295 97.1774 36.9531C97.568 36.5696 97.8699 36.0937 98.0829 35.5256L100.512 36.2074C100.256 37.0312 99.8265 37.7557 99.2228 38.3807C98.6191 38.9986 97.8734 39.4815 96.9856 39.8295C96.0978 40.1705 95.1 40.3409 93.992 40.3409ZM110.106 36.2926L117.99 23.6364H120.888V40H118.373V27.3438L110.532 40H107.592V23.6364H110.106V36.2926ZM116.328 18.1818H118.672C118.672 19.3324 118.274 20.2734 117.479 21.005C116.683 21.7365 115.604 22.1023 114.24 22.1023C112.898 22.1023 111.829 21.7365 111.033 21.005C110.245 20.2734 109.851 19.3324 109.851 18.1818H112.194C112.194 18.7358 112.347 19.2223 112.653 19.6413C112.965 20.0604 113.494 20.2699 114.24 20.2699C114.986 20.2699 115.518 20.0604 115.838 19.6413C116.165 19.2223 116.328 18.7358 116.328 18.1818ZM126.745 44.6875V37.6562H128.109C128.443 37.3082 128.73 36.9318 128.972 36.527C129.213 36.1222 129.423 35.6428 129.6 35.0888C129.785 34.5277 129.941 33.8459 130.069 33.0433C130.197 32.2337 130.311 31.2571 130.41 30.1136L130.964 23.6364H141.362V37.6562H143.876V44.6875H141.362V40H129.26V44.6875H126.745ZM130.964 37.6562H138.848V25.9801H133.308L132.882 30.1136C132.704 31.8253 132.484 33.3203 132.221 34.5987C131.958 35.8771 131.539 36.8963 130.964 37.6562ZM161.992 18.1818H164.591V35.3551H164.804L176.736 18.1818H179.293V40H176.651V22.8693H176.438L164.548 40H161.992V18.1818ZM198.19 30.6676V33.0114H189.156V30.6676H198.19ZM189.753 23.6364V40H187.239V23.6364H189.753ZM200.108 23.6364V40H197.594V23.6364H200.108ZM207.7 40V23.6364H214.39C216.151 23.6364 217.55 24.0341 218.587 24.8295C219.624 25.625 220.143 26.6761 220.143 27.983C220.143 28.9773 219.848 29.7479 219.259 30.2947C218.669 30.8345 217.913 31.2003 216.989 31.392C217.593 31.4773 218.179 31.6903 218.747 32.0312C219.322 32.3722 219.798 32.8409 220.175 33.4375C220.551 34.027 220.739 34.7514 220.739 35.6108C220.739 36.4489 220.526 37.1982 220.1 37.8587C219.674 38.5192 219.063 39.0412 218.268 39.4247C217.472 39.8082 216.521 40 215.413 40H207.7ZM210.086 37.6989H215.413C216.279 37.6989 216.957 37.4929 217.447 37.081C217.938 36.669 218.183 36.108 218.183 35.3977C218.183 34.5526 217.938 33.8885 217.447 33.4055C216.957 32.9155 216.279 32.6705 215.413 32.6705H210.086V37.6989ZM210.086 30.4972H214.39C215.065 30.4972 215.643 30.4048 216.126 30.2202C216.609 30.0284 216.979 29.7585 217.234 29.4105C217.497 29.0554 217.629 28.6364 217.629 28.1534C217.629 27.4645 217.341 26.9247 216.766 26.5341C216.19 26.1364 215.398 25.9375 214.39 25.9375H210.086V30.4972ZM234.406 40.3409C232.829 40.3409 231.469 39.9929 230.326 39.2969C229.189 38.5938 228.312 37.6136 227.694 36.3565C227.084 35.0923 226.778 33.6222 226.778 31.946C226.778 30.2699 227.084 28.7926 227.694 27.5142C228.312 26.2287 229.172 25.2273 230.273 24.5099C231.381 23.7855 232.673 23.4233 234.15 23.4233C235.003 23.4233 235.844 23.5653 236.675 23.8494C237.506 24.1335 238.263 24.5952 238.944 25.2344C239.626 25.8665 240.17 26.7045 240.574 27.7486C240.979 28.7926 241.182 30.0781 241.182 31.6051V32.6705H228.568V30.4972H238.625C238.625 29.5739 238.44 28.75 238.071 28.0256C237.709 27.3011 237.19 26.7294 236.515 26.3104C235.848 25.8913 235.059 25.6818 234.15 25.6818C233.149 25.6818 232.282 25.9304 231.551 26.4276C230.827 26.9176 230.269 27.5568 229.878 28.3452C229.488 29.1335 229.292 29.9787 229.292 30.8807V32.3295C229.292 33.5653 229.506 34.6129 229.932 35.4723C230.365 36.3246 230.965 36.9744 231.732 37.4219C232.499 37.8622 233.39 38.0824 234.406 38.0824C235.067 38.0824 235.663 37.9901 236.196 37.8054C236.736 37.6136 237.201 37.3295 237.591 36.9531C237.982 36.5696 238.284 36.0937 238.497 35.5256L240.926 36.2074C240.67 37.0312 240.241 37.7557 239.637 38.3807C239.033 38.9986 238.287 39.4815 237.4 39.8295C236.512 40.1705 235.514 40.3409 234.406 40.3409ZM254.654 40.3409C253.12 40.3409 251.799 39.9787 250.691 39.2543C249.583 38.5298 248.731 37.532 248.134 36.2607C247.537 34.9893 247.239 33.5369 247.239 31.9034C247.239 30.2415 247.545 28.7749 248.155 27.5036C248.773 26.2251 249.633 25.2273 250.733 24.5099C251.841 23.7855 253.134 23.4233 254.611 23.4233C255.762 23.4233 256.799 23.6364 257.722 24.0625C258.645 24.4886 259.402 25.0852 259.991 25.8523C260.581 26.6193 260.947 27.5142 261.089 28.5369H258.574C258.383 27.7912 257.956 27.1307 257.296 26.5554C256.643 25.973 255.762 25.6818 254.654 25.6818C253.674 25.6818 252.814 25.9375 252.076 26.4489C251.344 26.9531 250.773 27.6669 250.361 28.5902C249.956 29.5064 249.753 30.5824 249.753 31.8182C249.753 33.0824 249.952 34.1832 250.35 35.1207C250.755 36.0582 251.323 36.7862 252.055 37.3047C252.793 37.8232 253.66 38.0824 254.654 38.0824C255.307 38.0824 255.9 37.9688 256.433 37.7415C256.966 37.5142 257.417 37.1875 257.786 36.7614C258.155 36.3352 258.418 35.8239 258.574 35.2273H261.089C260.947 36.1932 260.595 37.0632 260.034 37.8374C259.48 38.6044 258.745 39.2152 257.829 39.6697C256.92 40.1172 255.861 40.3409 254.654 40.3409ZM266.475 25.9801V23.6364H279.77V25.9801H274.401V40H271.887V25.9801H266.475Z" fill="#F5F5F5"/>
<path d="M44.4489 20.5256H42.4489V22.5256H44.4489V20.5256ZM44.4489 18.1818V16.1818H42.4489V18.1818H44.4489ZM60.8125 18.1818H62.8125V16.1818H60.8125V18.1818ZM60.8125 20.5256V22.5256H62.8125V20.5256H60.8125ZM53.9517 20.5256V18.5256H51.9517V20.5256H53.9517ZM53.9517 40V42H55.9517V40H53.9517ZM51.3097 40H49.3097V42H51.3097V40ZM51.3097 20.5256H53.3097V18.5256H51.3097V20.5256ZM46.4489 20.5256V18.1818H42.4489V20.5256H46.4489ZM44.4489 20.1818H60.8125V16.1818H44.4489V20.1818ZM58.8125 18.1818V20.5256H62.8125V18.1818H58.8125ZM60.8125 18.5256H53.9517V22.5256H60.8125V18.5256ZM51.9517 20.5256V40H55.9517V20.5256H51.9517ZM53.9517 38H51.3097V42H53.9517V38ZM53.3097 40V20.5256H49.3097V40H53.3097ZM51.3097 18.5256H44.4489V22.5256H51.3097V18.5256ZM65.85 46.1364H63.85V48.1364H65.85V46.1364ZM65.85 23.6364V21.6364H63.85V23.6364H65.85ZM68.2789 23.6364H70.2789V21.6364H68.2789V23.6364ZM68.2789 26.2358H66.2789V28.2358H68.2789V26.2358ZM68.5772 26.2358V28.2358H69.6626L70.2541 27.3258L68.5772 26.2358ZM69.3443 25.1491L67.7412 23.9532L67.7381 23.9575L69.3443 25.1491ZM70.7718 23.956L71.7533 25.6986L71.7599 25.6949L70.7718 23.956ZM76.9508 24.4567L78.0471 22.7839L78.0471 22.7839L76.9508 24.4567ZM79.4118 27.3864L81.2244 26.5412L81.2244 26.5411L79.4118 27.3864ZM79.4118 36.3672L81.2244 37.2124L81.2262 37.2085L79.4118 36.3672ZM76.9615 39.3075L78.063 40.9769L78.0709 40.9716L76.9615 39.3075ZM70.8251 39.8189L69.8455 41.5626L69.853 41.5668L69.8605 41.5709L70.8251 39.8189ZM69.3656 38.6151L67.7656 39.8151L67.7701 39.8211L67.7747 39.8271L69.3656 38.6151ZM68.5772 37.4858L70.2778 36.4331L69.6913 35.4858H68.5772V37.4858ZM68.3642 37.4858V35.4858H66.3642V37.4858H68.3642ZM68.3642 46.1364V48.1364H70.3642V46.1364H68.3642ZM68.8649 35.0888L66.9975 35.8049L66.9993 35.8096L68.8649 35.0888ZM70.4522 37.294L69.2367 38.8823L69.247 38.8901L70.4522 37.294ZM75.6404 37.2514L76.8782 38.8224L76.8802 38.8208L75.6404 37.2514ZM77.2385 34.9929L75.3692 34.2815L75.3664 34.2891L77.2385 34.9929ZM77.2491 28.7074L75.3759 29.4081L75.3791 29.4167L75.3824 29.4253L77.2491 28.7074ZM75.6618 26.5021L74.4339 28.0808L74.4427 28.0877L74.4516 28.0945L75.6618 26.5021ZM70.4309 26.4595L71.6151 28.0713L71.6257 28.0634L70.4309 26.4595ZM68.8542 28.6115L70.7191 29.3343L70.7209 29.3295L68.8542 28.6115ZM67.85 46.1364V23.6364H63.85V46.1364H67.85ZM65.85 25.6364H68.2789V21.6364H65.85V25.6364ZM66.2789 23.6364V26.2358H70.2789V23.6364H66.2789ZM68.2789 28.2358H68.5772V24.2358H68.2789V28.2358ZM70.2541 27.3258C70.4069 27.0907 70.6354 26.7655 70.9505 26.3408L67.7381 23.9575C67.3998 24.4134 67.1169 24.8127 66.9004 25.1458L70.2541 27.3258ZM70.9473 26.3451C71.0757 26.1729 71.3151 25.9454 71.7533 25.6986L69.7904 22.2134C68.9928 22.6626 68.2804 23.2305 67.7412 23.9532L70.9473 26.3451ZM71.7599 25.6949C71.9727 25.5739 72.4333 25.4233 73.3074 25.4233V21.4233C72.0507 21.4233 70.821 21.6278 69.7838 22.2171L71.7599 25.6949ZM73.3074 25.4233C74.3347 25.4233 75.1603 25.6745 75.8545 26.1294L78.0471 22.7839C76.639 21.8611 75.0357 21.4233 73.3074 21.4233V25.4233ZM75.8545 26.1294C76.5611 26.5925 77.149 27.2663 77.5991 28.2316L81.2244 26.5411C80.4955 24.9781 79.4428 23.6987 78.0471 22.7839L75.8545 26.1294ZM77.5991 28.2316C78.04 29.177 78.296 30.3678 78.296 31.8608H82.296C82.296 29.9162 81.9625 28.1241 81.2244 26.5412L77.5991 28.2316ZM78.296 31.8608C78.296 33.3702 78.0392 34.5729 77.5973 35.5259L81.2262 37.2085C81.9633 35.6188 82.296 33.8173 82.296 31.8608H78.296ZM77.5991 35.522C77.1468 36.4921 76.5578 37.1729 75.8521 37.6434L78.0709 40.9716C79.4532 40.0501 80.4978 38.7707 81.2244 37.2124L77.5991 35.522ZM75.8599 37.6382C75.1722 38.092 74.3588 38.3409 73.35 38.3409V42.3409C75.0684 42.3409 76.6626 41.9009 78.063 40.9769L75.8599 37.6382ZM73.35 38.3409C72.4925 38.3409 72.0219 38.1947 71.7897 38.0669L69.8605 41.5709C70.8925 42.1391 72.1052 42.3409 73.35 42.3409V38.3409ZM71.8047 38.0752C71.3446 37.8167 71.0917 37.5804 70.9565 37.403L67.7747 39.8271C68.3213 40.5446 69.0414 41.1108 69.8455 41.5626L71.8047 38.0752ZM70.9656 37.4151C70.6415 36.9829 70.418 36.6597 70.2778 36.4331L66.8767 38.5385C67.1057 38.9085 67.4079 39.3381 67.7656 39.8151L70.9656 37.4151ZM68.5772 35.4858H68.3642V39.4858H68.5772V35.4858ZM66.3642 37.4858V46.1364H70.3642V37.4858H66.3642ZM68.3642 44.1364H65.85V48.1364H68.3642V44.1364ZM66.3216 31.8182C66.3216 33.2462 66.5306 34.5873 66.9975 35.8049L70.7323 34.3727C70.4748 33.7011 70.3216 32.8617 70.3216 31.8182H66.3216ZM66.9993 35.8096C67.4743 37.0392 68.2074 38.0945 69.2367 38.8823L71.6677 35.7058C71.305 35.4282 70.9798 35.0134 70.7305 34.368L66.9993 35.8096ZM69.247 38.8901C70.3427 39.7175 71.6364 40.0824 73.0091 40.0824V36.0824C72.3647 36.0824 71.9538 35.9217 71.6574 35.698L69.247 38.8901ZM73.0091 40.0824C74.4277 40.0824 75.7632 39.7008 76.8782 38.8224L74.4027 35.6804C74.1114 35.91 73.6927 36.0824 73.0091 36.0824V40.0824ZM76.8802 38.8208C77.908 38.0089 78.6425 36.9417 79.1105 35.6967L75.3664 34.2891C75.1242 34.9333 74.7933 35.3718 74.4007 35.6821L76.8802 38.8208ZM79.1077 35.7043C79.5678 34.4952 79.7818 33.1915 79.7818 31.8182H75.7818C75.7818 32.7744 75.6335 33.5872 75.3693 34.2815L79.1077 35.7043ZM79.7818 31.8182C79.7818 30.4615 79.5722 29.1759 79.1158 27.9894L75.3824 29.4253C75.6363 30.0854 75.7818 30.8737 75.7818 31.8182H79.7818ZM79.1224 28.0067C78.6575 26.7639 77.9164 25.7036 76.8719 24.9098L74.4516 28.0945C74.8276 28.3802 75.1447 28.7901 75.3759 29.4081L79.1224 28.0067ZM76.8896 24.9234C75.7704 24.0529 74.429 23.6818 73.0091 23.6818V27.6818C73.7198 27.6818 74.1469 27.8576 74.4339 28.0808L76.8896 24.9234ZM73.0091 23.6818C71.6352 23.6818 70.3361 24.0363 69.2362 24.8556L71.6257 28.0634C71.9178 27.8458 72.3375 27.6818 73.0091 27.6818V23.6818ZM69.2468 24.8478C68.1995 25.6172 67.4595 26.6664 66.9875 27.8935L70.7209 29.3295C70.9592 28.71 71.2703 28.3246 71.6151 28.0713L69.2468 24.8478ZM66.9894 27.8887C66.5261 29.0839 66.3216 30.4074 66.3216 31.8182H70.3216C70.3216 30.7858 70.4721 29.9715 70.719 29.3343L66.9894 27.8887ZM89.9118 39.2969L88.8594 40.9976L88.8656 41.0015L88.8719 41.0053L89.9118 39.2969ZM87.2804 36.3565L85.4795 37.2266L85.4855 37.2388L87.2804 36.3565ZM87.2804 27.5142L85.4778 26.6478L85.4758 26.652L87.2804 27.5142ZM89.8585 24.5099L90.9504 26.1856L90.953 26.1839L89.8585 24.5099ZM96.2612 23.8494L96.9082 21.957L96.9082 21.957L96.2612 23.8494ZM98.5304 25.2344L97.1625 26.6935L97.1706 26.7011L98.5304 25.2344ZM100.16 27.7486L102.025 27.0255L102.025 27.0255L100.16 27.7486ZM100.768 32.6705V34.6705H102.768V32.6705H100.768ZM88.1539 32.6705H86.1539V34.6705H88.1539V32.6705ZM88.1539 30.4972V28.4972H86.1539V30.4972H88.1539ZM98.2108 30.4972V32.4972H100.211V30.4972H98.2108ZM97.6568 28.0256L95.8679 28.92L95.8714 28.927L95.875 28.9339L97.6568 28.0256ZM96.1014 26.3104L95.0381 28.0044L95.0462 28.0094L96.1014 26.3104ZM91.1369 26.4276L92.2575 28.0841L92.2611 28.0817L91.1369 26.4276ZM89.4643 28.3452L87.6722 27.4572L87.6722 27.4572L89.4643 28.3452ZM89.5176 35.4723L87.7258 36.3608L87.7302 36.3697L87.7347 36.3786L89.5176 35.4723ZM91.318 37.4219L90.3102 39.1495L90.3223 39.1564L91.318 37.4219ZM95.7818 37.8054L96.4369 39.6951L96.4441 39.6926L96.4513 39.69L95.7818 37.8054ZM97.1774 36.9531L98.5652 38.3933L98.5719 38.3868L98.5786 38.3803L97.1774 36.9531ZM98.0829 35.5256L98.6234 33.6L96.8551 33.1036L96.2103 34.8233L98.0829 35.5256ZM100.512 36.2074L102.422 36.8002L103.031 34.8373L101.052 34.2818L100.512 36.2074ZM99.2228 38.3807L100.653 39.7784L100.661 39.7702L99.2228 38.3807ZM96.9856 39.8295L97.7026 41.6967L97.7155 41.6916L96.9856 39.8295ZM93.992 38.3409C92.7161 38.3409 91.7298 38.0622 90.9516 37.5885L88.8719 41.0053C90.3806 41.9236 92.1145 42.3409 93.992 42.3409V38.3409ZM90.9641 37.5961C90.163 37.1004 89.5358 36.4113 89.0753 35.4743L85.4855 37.2388C86.2607 38.816 87.3878 40.0871 88.8594 40.9976L90.9641 37.5961ZM89.0812 35.4865C88.6245 34.5412 88.3642 33.3786 88.3642 31.946H84.3642C84.3642 33.8657 84.7147 35.6435 85.4795 37.2266L89.0812 35.4865ZM88.3642 31.946C88.3642 30.5141 88.6243 29.3407 89.085 28.3764L85.4758 26.652C84.7149 28.2445 84.3642 30.0256 84.3642 31.946H88.3642ZM89.0829 28.3806C89.5564 27.3956 90.182 26.6863 90.9504 26.1856L88.7666 22.8343C87.3333 23.7683 86.2401 25.0618 85.4778 26.6478L89.0829 28.3806ZM90.953 26.1839C91.6986 25.6964 92.6012 25.4233 93.7363 25.4233V21.4233C91.917 21.4233 90.2343 21.8746 88.764 22.836L90.953 26.1839ZM93.7363 25.4233C94.3618 25.4233 94.9851 25.5268 95.6142 25.7419L96.9082 21.957C95.8754 21.6039 94.8154 21.4233 93.7363 21.4233V25.4233ZM95.6142 25.7419C96.1599 25.9284 96.674 26.2355 97.1625 26.6934L99.8982 23.7753C99.0231 22.9548 98.0245 22.3386 96.9082 21.957L95.6142 25.7419ZM97.1706 26.7011C97.589 27.0889 97.9784 27.6535 98.2956 28.4716L102.025 27.0255C101.533 25.7556 100.835 24.6441 99.8901 23.7677L97.1706 26.7011ZM98.2956 28.4716C98.585 29.2179 98.7676 30.2414 98.7676 31.6051H102.768C102.768 29.9149 102.545 28.3673 102.025 27.0255L98.2956 28.4716ZM98.7676 31.6051V32.6705H102.768V31.6051H98.7676ZM100.768 30.6705H88.1539V34.6705H100.768V30.6705ZM90.1539 32.6705V30.4972H86.1539V32.6705H90.1539ZM88.1539 32.4972H98.2108V28.4972H88.1539V32.4972ZM100.211 30.4972C100.211 29.3012 99.9697 28.159 99.4386 27.1172L95.875 28.9339C96.0825 29.341 96.2108 29.8465 96.2108 30.4972H100.211ZM99.4456 27.1311C98.9214 26.0827 98.152 25.2296 97.1566 24.6114L95.0462 28.0094C95.4002 28.2292 95.6677 28.5196 95.8679 28.92L99.4456 27.1311ZM97.1646 24.6164C96.132 23.9683 94.9627 23.6818 93.7363 23.6818V27.6818C94.3282 27.6818 94.7356 27.8144 95.0381 28.0043L97.1646 24.6164ZM93.7363 23.6818C92.3888 23.6818 91.1185 24.0219 90.0127 24.7734L92.2611 28.0817C92.6184 27.8389 93.081 27.6818 93.7363 27.6818V23.6818ZM90.0163 24.771C89.0035 25.4561 88.2155 26.3608 87.6722 27.4572L91.2564 29.2331C91.4944 28.7528 91.8214 28.3792 92.2575 28.0841L90.0163 24.771ZM87.6722 27.4572C87.1413 28.5287 86.8784 29.6787 86.8784 30.8807H90.8784C90.8784 30.2787 91.006 29.7384 91.2564 29.2331L87.6722 27.4572ZM86.8784 30.8807V32.3295H90.8784V30.8807H86.8784ZM86.8784 32.3295C86.8784 33.7877 87.129 35.1574 87.7258 36.3608L91.3094 34.5838C91.0538 34.0684 90.8784 33.343 90.8784 32.3295H86.8784ZM87.7347 36.3786C88.3281 37.546 89.1857 38.4934 90.3103 39.1494L92.3257 35.6943C91.9162 35.4554 91.5735 35.1032 91.3004 34.566L87.7347 36.3786ZM90.3223 39.1564C91.4349 39.7951 92.6795 40.0824 93.992 40.0824V36.0824C93.2732 36.0824 92.7352 35.9293 92.3137 35.6874L90.3223 39.1564ZM93.992 40.0824C94.8381 40.0824 95.6609 39.9641 96.4369 39.6951L95.1267 35.9157C94.8374 36.016 94.4669 36.0824 93.992 36.0824V40.0824ZM96.4513 39.69C97.2441 39.4084 97.9581 38.9783 98.5652 38.3933L95.7896 35.513C95.6154 35.6808 95.399 35.8189 95.1123 35.9208L96.4513 39.69ZM98.5786 38.3803C99.199 37.7711 99.6513 37.0392 99.9556 36.2278L96.2103 34.8233C96.0884 35.1483 95.9371 35.3681 95.7762 35.526L98.5786 38.3803ZM97.5424 37.4511L99.9714 38.133L101.052 34.2818L98.6234 33.6L97.5424 37.4511ZM98.6018 35.6146C98.4395 36.1374 98.1723 36.5895 97.7843 36.9912L100.661 39.7702C101.481 38.9219 102.073 37.9251 102.422 36.8002L98.6018 35.6146ZM97.7923 36.983C97.4063 37.378 96.9073 37.7121 96.2557 37.9675L97.7155 41.6916C98.8395 41.251 99.832 40.6191 100.653 39.7784L97.7923 36.983ZM96.2687 37.9625C95.6441 38.2023 94.8946 38.3409 93.992 38.3409V42.3409C95.3053 42.3409 96.5516 42.1386 97.7026 41.6966L96.2687 37.9625ZM110.106 36.2926H108.106V43.2862L111.804 37.35L110.106 36.2926ZM117.99 23.6364V21.6364H116.879L116.292 22.5789L117.99 23.6364ZM120.888 23.6364H122.888V21.6364H120.888V23.6364ZM120.888 40V42H122.888V40H120.888ZM118.373 40H116.373V42H118.373V40ZM118.373 27.3438H120.373V20.3179L116.673 26.2904L118.373 27.3438ZM110.532 40V42H111.646L112.233 41.0533L110.532 40ZM107.592 40H105.592V42H107.592V40ZM107.592 23.6364V21.6364H105.592V23.6364H107.592ZM110.106 23.6364H112.106V21.6364H110.106V23.6364ZM116.328 18.1818V16.1818H114.328V18.1818H116.328ZM118.672 18.1818H120.672V16.1818H118.672V18.1818ZM117.479 21.005L116.125 19.5328L116.125 19.5328L117.479 21.005ZM111.033 21.005L109.673 22.471L109.679 22.4771L111.033 21.005ZM109.851 18.1818V16.1818H107.851V18.1818H109.851ZM112.194 18.1818H114.194V16.1818H112.194V18.1818ZM112.653 19.6413L111.036 20.8193L111.043 20.8282L111.049 20.837L112.653 19.6413ZM115.838 19.6413L114.261 18.4116L114.254 18.42L114.248 18.4284L115.838 19.6413ZM111.804 37.35L119.687 24.6938L116.292 22.5789L108.409 35.2352L111.804 37.35ZM117.99 25.6364H120.888V21.6364H117.99V25.6364ZM118.888 23.6364V40H122.888V23.6364H118.888ZM120.888 38H118.373V42H120.888V38ZM120.373 40V27.3438H116.373V40H120.373ZM116.673 26.2904L108.832 38.9467L112.233 41.0533L120.074 28.3971L116.673 26.2904ZM110.532 38H107.592V42H110.532V38ZM109.592 40V23.6364H105.592V40H109.592ZM107.592 25.6364H110.106V21.6364H107.592V25.6364ZM108.106 23.6364V36.2926H112.106V23.6364H108.106ZM116.328 20.1818H118.672V16.1818H116.328V20.1818ZM116.672 18.1818C116.672 18.8136 116.479 19.2067 116.125 19.5328L118.832 22.4771C120.069 21.3402 120.672 19.8512 120.672 18.1818H116.672ZM116.125 19.5328C115.788 19.8426 115.239 20.1023 114.24 20.1023V24.1023C115.968 24.1023 117.578 23.6304 118.832 22.4771L116.125 19.5328ZM114.24 20.1023C113.272 20.1023 112.73 19.8478 112.387 19.5328L109.679 22.4771C110.928 23.6252 112.523 24.1023 114.24 24.1023V20.1023ZM112.394 19.5389C112.044 19.2145 111.851 18.8195 111.851 18.1818H107.851C107.851 19.8452 108.446 21.3324 109.673 22.471L112.394 19.5389ZM109.851 20.1818H112.194V16.1818H109.851V20.1818ZM110.194 18.1818C110.194 19.1285 110.464 20.0341 111.036 20.8193L114.269 18.4634C114.23 18.4105 114.194 18.3431 114.194 18.1818H110.194ZM111.049 20.837C111.882 21.9539 113.148 22.2699 114.24 22.2699V18.2699C114.146 18.2699 114.083 18.2632 114.046 18.2571C114.009 18.251 114.003 18.2465 114.02 18.2532C114.038 18.2605 114.077 18.2784 114.124 18.3139C114.173 18.3501 114.218 18.3952 114.256 18.4457L111.049 20.837ZM114.24 22.2699C115.336 22.2699 116.59 21.9526 117.428 20.8542L114.248 18.4284C114.283 18.3818 114.326 18.3401 114.371 18.3067C114.416 18.274 114.451 18.2578 114.467 18.2515C114.481 18.2458 114.474 18.2507 114.436 18.2569C114.397 18.2632 114.334 18.2699 114.24 18.2699V22.2699ZM117.415 20.8711C118.028 20.0849 118.328 19.1609 118.328 18.1818H114.328C114.328 18.3107 114.301 18.3597 114.261 18.4116L117.415 20.8711ZM126.745 44.6875H124.745V46.6875H126.745V44.6875ZM126.745 37.6562V35.6562H124.745V37.6562H126.745ZM128.109 37.6562V39.6562H128.962L129.552 39.0407L128.109 37.6562ZM128.972 36.527L130.69 37.5515L130.69 37.5515L128.972 36.527ZM129.6 35.0888L127.701 34.4635L127.698 34.4709L127.696 34.4783L129.6 35.0888ZM130.069 33.0433L132.044 33.3579L132.045 33.3552L130.069 33.0433ZM130.41 30.1136L132.403 30.2869L132.403 30.2841L130.41 30.1136ZM130.964 23.6364V21.6364H129.128L128.971 23.4659L130.964 23.6364ZM141.362 23.6364H143.362V21.6364H141.362V23.6364ZM141.362 37.6562H139.362V39.6562H141.362V37.6562ZM143.876 37.6562H145.876V35.6562H143.876V37.6562ZM143.876 44.6875V46.6875H145.876V44.6875H143.876ZM141.362 44.6875H139.362V46.6875H141.362V44.6875ZM141.362 40H143.362V38H141.362V40ZM129.26 40V38H127.26V40H129.26ZM129.26 44.6875V46.6875H131.26V44.6875H129.26ZM130.964 37.6562L129.37 36.4491L126.942 39.6562H130.964V37.6562ZM138.848 37.6562V39.6562H140.848V37.6562H138.848ZM138.848 25.9801H140.848V23.9801H138.848V25.9801ZM133.308 25.9801V23.9801H131.503L131.318 25.775L133.308 25.9801ZM132.882 30.1136L134.871 30.32L134.871 30.3187L132.882 30.1136ZM132.221 34.5987L130.262 34.196L130.262 34.196L132.221 34.5987ZM128.745 44.6875V37.6562H124.745V44.6875H128.745ZM126.745 39.6562H128.109V35.6562H126.745V39.6562ZM129.552 39.0407C129.989 38.586 130.369 38.0893 130.69 37.5515L127.254 35.5024C127.092 35.7743 126.897 36.0305 126.666 36.2718L129.552 39.0407ZM130.69 37.5515C131.025 36.9901 131.291 36.3657 131.505 35.6992L127.696 34.4783C127.554 34.9198 127.402 35.2543 127.254 35.5024L130.69 37.5515ZM131.5 35.714C131.728 35.0219 131.905 34.2297 132.044 33.3579L128.094 32.7287C127.977 33.462 127.842 34.0335 127.701 34.4635L131.5 35.714ZM132.045 33.3552C132.182 32.4855 132.301 31.46 132.403 30.2869L128.418 29.9404C128.321 31.0542 128.212 31.9818 128.094 32.7314L132.045 33.3552ZM132.403 30.2841L132.957 23.8068L128.971 23.4659L128.417 29.9432L132.403 30.2841ZM130.964 25.6364H141.362V21.6364H130.964V25.6364ZM139.362 23.6364V37.6562H143.362V23.6364H139.362ZM141.362 39.6562H143.876V35.6562H141.362V39.6562ZM141.876 37.6562V44.6875H145.876V37.6562H141.876ZM143.876 42.6875H141.362V46.6875H143.876V42.6875ZM143.362 44.6875V40H139.362V44.6875H143.362ZM141.362 38H129.26V42H141.362V38ZM127.26 40V44.6875H131.26V40H127.26ZM129.26 42.6875H126.745V46.6875H129.26V42.6875ZM130.964 39.6562H138.848V35.6562H130.964V39.6562ZM140.848 37.6562V25.9801H136.848V37.6562H140.848ZM138.848 23.9801H133.308V27.9801H138.848V23.9801ZM131.318 25.775L130.892 29.9085L134.871 30.3187L135.297 26.1852L131.318 25.775ZM130.892 29.9073C130.72 31.5724 130.508 32.9992 130.262 34.196L134.18 35.0014C134.46 33.6415 134.689 32.0782 134.871 30.32L130.892 29.9073ZM130.262 34.196C130.038 35.2843 129.711 35.9977 129.37 36.4491L132.559 38.8634C133.368 37.7949 133.878 36.47 134.18 35.0014L130.262 34.196ZM161.992 18.1818V16.1818H159.992V18.1818H161.992ZM164.591 18.1818H166.591V16.1818H164.591V18.1818ZM164.591 35.3551H162.591V37.3551H164.591V35.3551ZM164.804 35.3551V37.3551H165.85L166.447 36.4963L164.804 35.3551ZM176.736 18.1818V16.1818H175.69L175.093 17.0406L176.736 18.1818ZM179.293 18.1818H181.293V16.1818H179.293V18.1818ZM179.293 40V42H181.293V40H179.293ZM176.651 40H174.651V42H176.651V40ZM176.651 22.8693H178.651V20.8693H176.651V22.8693ZM176.438 22.8693V20.8693H175.391L174.795 21.729L176.438 22.8693ZM164.548 40V42H165.595L166.192 41.1403L164.548 40ZM161.992 40H159.992V42H161.992V40ZM161.992 20.1818H164.591V16.1818H161.992V20.1818ZM162.591 18.1818V35.3551H166.591V18.1818H162.591ZM164.591 37.3551H164.804V33.3551H164.591V37.3551ZM166.447 36.4963L178.378 19.323L175.093 17.0406L163.162 34.2139L166.447 36.4963ZM176.736 20.1818H179.293V16.1818H176.736V20.1818ZM177.293 18.1818V40H181.293V18.1818H177.293ZM179.293 38H176.651V42H179.293V38ZM178.651 40V22.8693H174.651V40H178.651ZM176.651 20.8693H176.438V24.8693H176.651V20.8693ZM174.795 21.729L162.905 38.8597L166.192 41.1403L178.081 24.0096L174.795 21.729ZM164.548 38H161.992V42H164.548V38ZM163.992 40V18.1818H159.992V40H163.992ZM198.19 30.6676H200.19V28.6676H198.19V30.6676ZM198.19 33.0114V35.0114H200.19V33.0114H198.19ZM189.156 33.0114H187.156V35.0114H189.156V33.0114ZM189.156 30.6676V28.6676H187.156V30.6676H189.156ZM189.753 23.6364H191.753V21.6364H189.753V23.6364ZM189.753 40V42H191.753V40H189.753ZM187.239 40H185.239V42H187.239V40ZM187.239 23.6364V21.6364H185.239V23.6364H187.239ZM200.108 23.6364H202.108V21.6364H200.108V23.6364ZM200.108 40V42H202.108V40H200.108ZM197.594 40H195.594V42H197.594V40ZM197.594 23.6364V21.6364H195.594V23.6364H197.594ZM196.19 30.6676V33.0114H200.19V30.6676H196.19ZM198.19 31.0114H189.156V35.0114H198.19V31.0114ZM191.156 33.0114V30.6676H187.156V33.0114H191.156ZM189.156 32.6676H198.19V28.6676H189.156V32.6676ZM187.753 23.6364V40H191.753V23.6364H187.753ZM189.753 38H187.239V42H189.753V38ZM189.239 40V23.6364H185.239V40H189.239ZM187.239 25.6364H189.753V21.6364H187.239V25.6364ZM198.108 23.6364V40H202.108V23.6364H198.108ZM200.108 38H197.594V42H200.108V38ZM199.594 40V23.6364H195.594V40H199.594ZM197.594 25.6364H200.108V21.6364H197.594V25.6364ZM207.7 40H205.7V42H207.7V40ZM207.7 23.6364V21.6364H205.7V23.6364H207.7ZM218.587 24.8295L217.37 26.4164L217.37 26.4164L218.587 24.8295ZM219.259 30.2947L220.609 31.7698L220.619 31.761L219.259 30.2947ZM216.989 31.392L216.583 29.4338L216.71 33.3724L216.989 31.392ZM218.747 32.0312L217.718 33.7463L217.728 33.7518L218.747 32.0312ZM220.175 33.4375L218.483 34.5047L218.489 34.5139L220.175 33.4375ZM220.1 37.8587L221.781 38.9429L221.781 38.9429L220.1 37.8587ZM210.086 37.6989H208.086V39.6989H210.086V37.6989ZM217.447 33.4055L216.033 34.8198L216.038 34.8249L216.044 34.83L217.447 33.4055ZM210.086 32.6705V30.6705H208.086V32.6705H210.086ZM210.086 30.4972H208.086V32.4972H210.086V30.4972ZM216.126 30.2202L216.841 32.0883L216.853 32.0837L216.864 32.079L216.126 30.2202ZM217.234 29.4105L215.627 28.2208L215.623 28.2264L217.234 29.4105ZM216.766 26.5341L215.628 28.1792L215.635 28.184L215.642 28.1887L216.766 26.5341ZM210.086 25.9375V23.9375H208.086V25.9375H210.086ZM209.7 40V23.6364H205.7V40H209.7ZM207.7 25.6364H214.39V21.6364H207.7V25.6364ZM214.39 25.6364C215.863 25.6364 216.786 25.9686 217.37 26.4164L219.805 23.2427C218.315 22.0996 216.44 21.6364 214.39 21.6364V25.6364ZM217.37 26.4164C217.914 26.8334 218.143 27.298 218.143 27.983H222.143C222.143 26.0542 221.335 24.4166 219.805 23.2427L217.37 26.4164ZM218.143 27.983C218.143 28.562 217.987 28.7465 217.898 28.8285L220.619 31.761C221.709 30.7492 222.143 29.3925 222.143 27.983H218.143ZM217.908 28.8197C217.628 29.0758 217.217 29.302 216.583 29.4338L217.396 33.3503C218.608 33.0986 219.71 32.5932 220.609 31.7698L217.908 28.8197ZM216.71 33.3724C217.026 33.4171 217.359 33.531 217.718 33.7462L219.776 30.3163C218.999 29.8497 218.16 29.5375 217.269 29.4117L216.71 33.3724ZM217.728 33.7518C218.015 33.9224 218.266 34.1609 218.483 34.5047L221.866 32.3703C221.33 31.5209 220.63 30.822 219.767 30.3107L217.728 33.7518ZM218.489 34.5139C218.618 34.7154 218.739 35.0454 218.739 35.6108H222.739C222.739 34.4575 222.485 33.3386 221.86 32.3611L218.489 34.5139ZM218.739 35.6108C218.739 36.0909 218.623 36.4588 218.42 36.7744L221.781 38.9429C222.429 37.9375 222.739 36.8068 222.739 35.6108H218.739ZM218.42 36.7744C218.217 37.0887 217.905 37.3792 217.399 37.6232L219.136 41.2263C220.221 40.7031 221.131 39.9496 221.781 38.9429L218.42 36.7744ZM217.399 37.6232C216.935 37.8472 216.294 38 215.413 38V42C216.747 42 218.01 41.7693 219.136 41.2263L217.399 37.6232ZM215.413 38H207.7V42H215.413V38ZM210.086 39.6989H215.413V35.6989H210.086V39.6989ZM215.413 39.6989C216.583 39.6989 217.774 39.4191 218.734 38.6119L216.161 35.55C216.141 35.5667 215.975 35.6989 215.413 35.6989V39.6989ZM218.734 38.6119C219.729 37.7755 220.183 36.6256 220.183 35.3977H216.183C216.183 35.5211 216.162 35.5599 216.166 35.5508C216.167 35.5478 216.17 35.5426 216.173 35.5385C216.176 35.5346 216.174 35.5387 216.161 35.55L218.734 38.6119ZM220.183 35.3977C220.183 34.1473 219.806 32.9224 218.851 31.981L216.044 34.83C216.069 34.8546 216.183 34.9578 216.183 35.3977H220.183ZM218.862 31.9913C217.908 31.0375 216.669 30.6705 215.413 30.6705V34.6705C215.889 34.6705 216.007 34.7935 216.033 34.8198L218.862 31.9913ZM215.413 30.6705H210.086V34.6705H215.413V30.6705ZM208.086 32.6705V37.6989H212.086V32.6705H208.086ZM210.086 32.4972H214.39V28.4972H210.086V32.4972ZM214.39 32.4972C215.238 32.4972 216.072 32.3822 216.841 32.0883L215.412 28.3521C215.215 28.4274 214.891 28.4972 214.39 28.4972V32.4972ZM216.864 32.079C217.625 31.7771 218.327 31.3016 218.846 30.5947L215.623 28.2264C215.622 28.2272 215.62 28.2299 215.615 28.2346C215.61 28.2394 215.601 28.2478 215.586 28.2592C215.554 28.282 215.494 28.3195 215.388 28.3613L216.864 32.079ZM218.842 30.6002C219.384 29.8684 219.629 29.0226 219.629 28.1534H215.629C215.629 28.1834 215.627 28.2035 215.625 28.2153C215.624 28.2213 215.623 28.2254 215.623 28.2279C215.622 28.2292 215.622 28.2301 215.622 28.2306C215.622 28.2312 215.622 28.2315 215.622 28.2315C215.622 28.2315 215.622 28.2313 215.622 28.2309C215.622 28.2305 215.622 28.23 215.622 28.2293C215.623 28.2279 215.624 28.2263 215.625 28.2247C215.626 28.2211 215.628 28.2196 215.627 28.2208L218.842 30.6002ZM219.629 28.1534C219.629 26.7944 219.006 25.6382 217.889 24.8795L215.642 28.1887C215.673 28.2095 215.681 28.2196 215.677 28.2151C215.675 28.2129 215.671 28.208 215.665 28.2003C215.659 28.1925 215.653 28.1832 215.648 28.1725C215.642 28.1618 215.637 28.1513 215.634 28.1416C215.63 28.132 215.628 28.1248 215.627 28.1206C215.625 28.1118 215.629 28.1207 215.629 28.1534H219.629ZM217.903 24.889C216.876 24.1787 215.633 23.9375 214.39 23.9375V27.9375C215.164 27.9375 215.505 28.0941 215.628 28.1792L217.903 24.889ZM214.39 23.9375H210.086V27.9375H214.39V23.9375ZM208.086 25.9375V30.4972H212.086V25.9375H208.086ZM230.326 39.2969L229.273 40.9976L229.28 41.0015L229.286 41.0053L230.326 39.2969ZM227.694 36.3565L225.894 37.2266L225.9 37.2388L227.694 36.3565ZM227.694 27.5142L225.892 26.6478L225.89 26.652L227.694 27.5142ZM230.273 24.5099L231.364 26.1856L231.367 26.1839L230.273 24.5099ZM236.675 23.8494L237.322 21.957L237.322 21.957L236.675 23.8494ZM238.944 25.2344L237.577 26.6935L237.585 26.7011L238.944 25.2344ZM240.574 27.7486L242.439 27.0255L242.439 27.0255L240.574 27.7486ZM241.182 32.6705V34.6705H243.182V32.6705H241.182ZM228.568 32.6705H226.568V34.6705H228.568V32.6705ZM228.568 30.4972V28.4972H226.568V30.4972H228.568ZM238.625 30.4972V32.4972H240.625V30.4972H238.625ZM238.071 28.0256L236.282 28.92L236.285 28.927L236.289 28.9339L238.071 28.0256ZM236.515 26.3104L235.452 28.0044L235.46 28.0094L236.515 26.3104ZM231.551 26.4276L232.672 28.0841L232.675 28.0817L231.551 26.4276ZM229.878 28.3452L228.086 27.4572L228.086 27.4572L229.878 28.3452ZM229.932 35.4723L228.14 36.3608L228.144 36.3697L228.149 36.3786L229.932 35.4723ZM231.732 37.4219L230.724 39.1495L230.736 39.1564L231.732 37.4219ZM236.196 37.8054L236.851 39.6951L236.858 39.6926L236.865 39.69L236.196 37.8054ZM237.591 36.9531L238.979 38.3933L238.986 38.3868L238.993 38.3803L237.591 36.9531ZM238.497 35.5256L239.037 33.6L237.269 33.1036L236.624 34.8233L238.497 35.5256ZM240.926 36.2074L242.836 36.8002L243.445 34.8373L241.466 34.2818L240.926 36.2074ZM239.637 38.3807L241.067 39.7784L241.075 39.7702L239.637 38.3807ZM237.4 39.8295L238.117 41.6967L238.13 41.6916L237.4 39.8295ZM234.406 38.3409C233.13 38.3409 232.144 38.0622 231.366 37.5885L229.286 41.0053C230.795 41.9236 232.529 42.3409 234.406 42.3409V38.3409ZM231.378 37.5961C230.577 37.1004 229.95 36.4113 229.489 35.4743L225.9 37.2388C226.675 38.816 227.802 40.0871 229.273 40.9976L231.378 37.5961ZM229.495 35.4865C229.039 34.5412 228.778 33.3786 228.778 31.946H224.778C224.778 33.8657 225.129 35.6435 225.894 37.2266L229.495 35.4865ZM228.778 31.946C228.778 30.5141 229.038 29.3407 229.499 28.3764L225.89 26.652C225.129 28.2445 224.778 30.0256 224.778 31.946H228.778ZM229.497 28.3806C229.97 27.3956 230.596 26.6863 231.364 26.1856L229.181 22.8343C227.747 23.7683 226.654 25.0618 225.892 26.6478L229.497 28.3806ZM231.367 26.1839C232.113 25.6964 233.015 25.4233 234.15 25.4233V21.4233C232.331 21.4233 230.648 21.8746 229.178 22.836L231.367 26.1839ZM234.15 25.4233C234.776 25.4233 235.399 25.5268 236.028 25.7419L237.322 21.957C236.289 21.6039 235.229 21.4233 234.15 21.4233V25.4233ZM236.028 25.7419C236.574 25.9284 237.088 26.2355 237.577 26.6934L240.312 23.7753C239.437 22.9548 238.439 22.3386 237.322 21.957L236.028 25.7419ZM237.585 26.7011C238.003 27.0889 238.392 27.6535 238.71 28.4716L242.439 27.0255C241.947 25.7556 241.249 24.6441 240.304 23.7677L237.585 26.7011ZM238.71 28.4716C238.999 29.2179 239.182 30.2414 239.182 31.6051H243.182C243.182 29.9149 242.959 28.3673 242.439 27.0255L238.71 28.4716ZM239.182 31.6051V32.6705H243.182V31.6051H239.182ZM241.182 30.6705H228.568V34.6705H241.182V30.6705ZM230.568 32.6705V30.4972H226.568V32.6705H230.568ZM228.568 32.4972H238.625V28.4972H228.568V32.4972ZM240.625 30.4972C240.625 29.3012 240.384 28.159 239.853 27.1172L236.289 28.9339C236.497 29.341 236.625 29.8465 236.625 30.4972H240.625ZM239.86 27.1311C239.335 26.0827 238.566 25.2296 237.571 24.6114L235.46 28.0094C235.814 28.2292 236.082 28.5196 236.282 28.92L239.86 27.1311ZM237.579 24.6164C236.546 23.9683 235.377 23.6818 234.15 23.6818V27.6818C234.742 27.6818 235.15 27.8144 235.452 28.0043L237.579 24.6164ZM234.15 23.6818C232.803 23.6818 231.533 24.0219 230.427 24.7734L232.675 28.0817C233.032 27.8389 233.495 27.6818 234.15 27.6818V23.6818ZM230.43 24.771C229.418 25.4561 228.63 26.3608 228.086 27.4572L231.67 29.2331C231.908 28.7528 232.235 28.3792 232.672 28.0841L230.43 24.771ZM228.086 27.4572C227.555 28.5287 227.292 29.6787 227.292 30.8807H231.292C231.292 30.2787 231.42 29.7384 231.67 29.2331L228.086 27.4572ZM227.292 30.8807V32.3295H231.292V30.8807H227.292ZM227.292 32.3295C227.292 33.7877 227.543 35.1574 228.14 36.3608L231.723 34.5838C231.468 34.0684 231.292 33.343 231.292 32.3295H227.292ZM228.149 36.3786C228.742 37.546 229.6 38.4934 230.724 39.1494L232.74 35.6943C232.33 35.4554 231.988 35.1032 231.715 34.566L228.149 36.3786ZM230.736 39.1564C231.849 39.7951 233.094 40.0824 234.406 40.0824V36.0824C233.687 36.0824 233.149 35.9293 232.728 35.6874L230.736 39.1564ZM234.406 40.0824C235.252 40.0824 236.075 39.9641 236.851 39.6951L235.541 35.9157C235.251 36.016 234.881 36.0824 234.406 36.0824V40.0824ZM236.865 39.69C237.658 39.4084 238.372 38.9783 238.979 38.3933L236.204 35.513C236.029 35.6808 235.813 35.8189 235.526 35.9208L236.865 39.69ZM238.993 38.3803C239.613 37.7711 240.065 37.0392 240.37 36.2278L236.624 34.8233C236.502 35.1483 236.351 35.3681 236.19 35.526L238.993 38.3803ZM237.956 37.4511L240.385 38.133L241.466 34.2818L239.037 33.6L237.956 37.4511ZM239.016 35.6146C238.854 36.1374 238.586 36.5895 238.198 36.9912L241.075 39.7702C241.895 38.9219 242.487 37.9251 242.836 36.8002L239.016 35.6146ZM238.206 36.983C237.82 37.378 237.321 37.7121 236.67 37.9675L238.13 41.6916C239.254 41.251 240.246 40.6191 241.067 39.7784L238.206 36.983ZM236.683 37.9625C236.058 38.2023 235.309 38.3409 234.406 38.3409V42.3409C235.719 42.3409 236.966 42.1386 238.117 41.6966L236.683 37.9625ZM250.691 39.2543L249.596 40.9282L249.596 40.9282L250.691 39.2543ZM248.155 27.5036L246.355 26.6332L246.353 26.6374L248.155 27.5036ZM250.733 24.5099L251.825 26.1856L251.828 26.1839L250.733 24.5099ZM257.722 24.0625L256.884 25.8784L257.722 24.0625ZM259.991 25.8523L261.577 24.6336L261.577 24.6336L259.991 25.8523ZM261.089 28.5369V30.5369H263.386L263.07 28.2618L261.089 28.5369ZM258.574 28.5369L256.637 29.035L257.024 30.5369H258.574V28.5369ZM257.296 26.5554L255.965 28.0484L255.974 28.056L255.982 28.0636L257.296 26.5554ZM252.076 26.4489L253.211 28.0956L253.214 28.0932L252.076 26.4489ZM250.361 28.5902L248.534 27.7753L248.531 27.7819L250.361 28.5902ZM250.35 35.1207L248.509 35.9019L248.514 35.9136L250.35 35.1207ZM252.055 37.3047L250.898 38.9364L250.905 38.9417L252.055 37.3047ZM256.433 37.7415L255.648 35.9019L255.648 35.9019L256.433 37.7415ZM257.786 36.7614L259.297 38.0712L259.297 38.0712L257.786 36.7614ZM258.574 35.2273V33.2273H257.031L256.64 34.7206L258.574 35.2273ZM261.089 35.2273L263.067 35.5183L263.404 33.2273H261.089V35.2273ZM260.034 37.8374L258.415 36.6637L258.413 36.6664L260.034 37.8374ZM257.829 39.6697L258.712 41.4642L258.718 41.4614L257.829 39.6697ZM254.654 38.3409C253.445 38.3409 252.519 38.0599 251.785 37.5803L249.596 40.9282C251.079 41.8975 252.794 42.3409 254.654 42.3409V38.3409ZM251.785 37.5803C251.007 37.0714 250.394 36.3678 249.945 35.411L246.324 37.1103C247.068 38.6961 248.159 39.9882 249.596 40.9282L251.785 37.5803ZM249.945 35.411C249.492 34.4456 249.239 33.2909 249.239 31.9034H245.239C245.239 33.7829 245.583 35.5331 246.324 37.1103L249.945 35.411ZM249.239 31.9034C249.239 30.4882 249.498 29.3266 249.958 28.3697L246.353 26.6374C245.591 28.2231 245.239 29.9947 245.239 31.9034H249.239ZM249.956 28.3739C250.429 27.396 251.054 26.6881 251.825 26.1856L249.642 22.8343C248.211 23.7665 247.118 25.0542 246.355 26.6332L249.956 28.3739ZM251.828 26.1839C252.574 25.6964 253.476 25.4233 254.611 25.4233V21.4233C252.792 21.4233 251.109 21.8746 249.639 22.836L251.828 26.1839ZM254.611 25.4233C255.511 25.4233 256.256 25.5886 256.884 25.8784L258.56 22.2466C257.342 21.6842 256.013 21.4233 254.611 21.4233V25.4233ZM256.884 25.8784C257.529 26.1761 258.023 26.5738 258.406 27.071L261.577 24.6336C260.78 23.5967 259.762 22.8012 258.56 22.2466L256.884 25.8784ZM258.406 27.071C258.769 27.5445 259.01 28.1089 259.108 28.8121L263.07 28.2618C262.883 26.9195 262.392 25.6941 261.577 24.6336L258.406 27.071ZM261.089 26.5369H258.574V30.5369H261.089V26.5369ZM260.511 28.0388C260.205 26.8488 259.532 25.8505 258.61 25.0472L255.982 28.0636C256.381 28.4108 256.56 28.7336 256.637 29.035L260.511 28.0388ZM258.627 25.0624C257.517 24.0736 256.118 23.6818 254.654 23.6818V27.6818C255.406 27.6818 255.768 27.8724 255.965 28.0484L258.627 25.0624ZM254.654 23.6818C253.306 23.6818 252.041 24.0404 250.937 24.8045L253.214 28.0932C253.588 27.8346 254.042 27.6818 254.654 27.6818V23.6818ZM250.941 24.8022C249.867 25.5425 249.075 26.5638 248.534 27.7753L252.187 29.4051C252.47 28.77 252.822 28.3637 253.211 28.0955L250.941 24.8022ZM248.531 27.7819C247.991 29.0049 247.753 30.3673 247.753 31.8182H251.753C251.753 30.7974 251.921 30.0079 252.19 29.3985L248.531 27.7819ZM247.753 31.8182C247.753 33.288 247.984 34.6654 248.509 35.9018L252.191 34.3396C251.92 33.7011 251.753 32.8768 251.753 31.8182H247.753ZM248.514 35.9136C249.043 37.14 249.828 38.1777 250.898 38.9364L253.211 35.6729C252.818 35.3947 252.466 34.9765 252.186 34.3279L248.514 35.9136ZM250.905 38.9417C252.015 39.7204 253.292 40.0824 254.654 40.0824V36.0824C254.027 36.0824 253.571 35.9259 253.204 35.6677L250.905 38.9417ZM254.654 40.0824C255.543 40.0824 256.407 39.9269 257.218 39.581L255.648 35.9019C255.394 36.0106 255.072 36.0824 254.654 36.0824V40.0824ZM257.218 39.581C258.022 39.2379 258.724 38.7331 259.297 38.0712L256.275 35.4515C256.11 35.6419 255.909 35.7905 255.648 35.9019L257.218 39.581ZM259.297 38.0712C259.886 37.3923 260.283 36.599 260.509 35.734L256.64 34.7206C256.554 35.0487 256.425 35.2782 256.275 35.4515L259.297 38.0712ZM258.574 37.2273H261.089V33.2273H258.574V37.2273ZM259.11 34.9363C259.014 35.5903 258.782 36.1562 258.415 36.6637L261.653 39.011C262.408 37.9702 262.879 36.7961 263.067 35.5183L259.11 34.9363ZM258.413 36.6664C258.064 37.1491 257.589 37.5559 256.94 37.8781L258.718 41.4614C259.901 40.8745 260.896 40.0597 261.655 39.0083L258.413 36.6664ZM256.945 37.8753C256.359 38.164 255.613 38.3409 254.654 38.3409V42.3409C256.109 42.3409 257.48 42.0704 258.712 41.4642L256.945 37.8753ZM266.475 25.9801H264.475V27.9801H266.475V25.9801ZM266.475 23.6364V21.6364H264.475V23.6364H266.475ZM279.77 23.6364H281.77V21.6364H279.77V23.6364ZM279.77 25.9801V27.9801H281.77V25.9801H279.77ZM274.401 25.9801V23.9801H272.401V25.9801H274.401ZM274.401 40V42H276.401V40H274.401ZM271.887 40H269.887V42H271.887V40ZM271.887 25.9801H273.887V23.9801H271.887V25.9801ZM268.475 25.9801V23.6364H264.475V25.9801H268.475ZM266.475 25.6364H279.77V21.6364H266.475V25.6364ZM277.77 23.6364V25.9801H281.77V23.6364H277.77ZM279.77 23.9801H274.401V27.9801H279.77V23.9801ZM272.401 25.9801V40H276.401V25.9801H272.401ZM274.401 38H271.887V42H274.401V38ZM273.887 40V25.9801H269.887V40H273.887ZM271.887 23.9801H266.475V27.9801H271.887V23.9801Z" fill="black"/>
</svg>
